<svg width="40" height="40" viewBox="0 0 40 40" fill="none" xmlns="http://www.w3.org/2000/svg">
<path d="M33.7499 17.5001H31.8624C31.5851 17.5119 31.3118 17.4311 31.0854 17.2704C30.8591 17.1097 30.6927 16.8783 30.6124 16.6126L28.5124 9.45006C28.1242 8.1591 27.329 7.02827 26.2454 6.22629C25.1618 5.42431 23.848 4.99417 22.4999 5.00006H12.1374C10.8893 5.00035 9.66978 5.37436 8.63607 6.0739C7.60235 6.77344 6.80177 7.76647 6.33745 8.92506L2.77495 17.8376C2.59047 18.2811 2.49696 18.7572 2.49995 19.2376V25.0001C2.49999 26.4647 3.01439 27.8828 3.95336 29.0068C4.89233 30.1308 6.19623 30.8894 7.63745 31.1501C7.89706 32.2342 8.51151 33.2004 9.38318 33.8953C10.2548 34.5902 11.3337 34.9739 12.4484 34.9854C13.5631 34.9969 14.6497 34.6355 15.5355 33.9587C16.4213 33.282 17.0555 32.3286 17.3374 31.2501H22.6624C22.9421 32.3201 23.5686 33.2671 24.444 33.9431C25.3193 34.619 26.394 34.9857 27.4999 34.9857C28.6059 34.9857 29.6806 34.619 30.5559 33.9431C31.4313 33.2671 32.0578 32.3201 32.3374 31.2501H33.7499C34.7445 31.2501 35.6983 30.855 36.4016 30.1517C37.1049 29.4484 37.4999 28.4946 37.4999 27.5001V21.2501C37.4999 20.2555 37.1049 19.3017 36.4016 18.5984C35.6983 17.8951 34.7445 17.5001 33.7499 17.5001ZM12.4999 32.5001C12.0055 32.5001 11.5221 32.3534 11.111 32.0787C10.6999 31.804 10.3795 31.4136 10.1902 30.9568C10.001 30.5 9.95152 29.9973 10.048 29.5123C10.1444 29.0274 10.3825 28.5819 10.7322 28.2323C11.0818 27.8827 11.5273 27.6446 12.0122 27.5481C12.4972 27.4516 12.9998 27.5011 13.4567 27.6904C13.9135 27.8796 14.3039 28.2 14.5786 28.6111C14.8533 29.0223 14.9999 29.5056 14.9999 30.0001C14.9999 30.6631 14.7366 31.299 14.2677 31.7678C13.7989 32.2367 13.163 32.5001 12.4999 32.5001ZM18.7499 17.5001H5.58745L8.64995 9.86256C8.92783 9.16481 9.40883 8.56659 10.0306 8.14536C10.6524 7.72414 11.3864 7.49933 12.1374 7.50006H18.7499V17.5001ZM21.2499 17.5001V7.50006H22.4999C23.3124 7.49305 24.1052 7.7501 24.7589 8.23253C25.4127 8.71496 25.8921 9.39666 26.1249 10.1751L28.2624 17.3251C28.2821 17.3855 28.3072 17.4441 28.3374 17.5001H21.2499ZM27.4999 32.5001C27.0055 32.5001 26.5221 32.3534 26.111 32.0787C25.6999 31.804 25.3795 31.4136 25.1902 30.9568C25.001 30.5 24.9515 29.9973 25.048 29.5123C25.1444 29.0274 25.3825 28.5819 25.7322 28.2323C26.0818 27.8827 26.5273 27.6446 27.0122 27.5481C27.4972 27.4516 27.9998 27.5011 28.4567 27.6904C28.9135 27.8796 29.3039 28.2 29.5786 28.6111C29.8533 29.0223 29.9999 29.5056 29.9999 30.0001C29.9999 30.6631 29.7366 31.299 29.2677 31.7678C28.7989 32.2367 28.163 32.5001 27.4999 32.5001ZM34.9999 25.0001H33.7499C33.4184 25.0001 33.1005 24.8684 32.8661 24.6339C32.6316 24.3995 32.4999 24.0816 32.4999 23.7501C32.4999 23.4185 32.6316 23.1006 32.8661 22.8662C33.1005 22.6318 33.4184 22.5001 33.7499 22.5001H34.9999V25.0001Z" fill="#0077FF"/>
</svg>
